<svg version="1.1" id="Layer_1" xmlns="http://www.w3.org/2000/svg" xmlns:xlink="http://www.w3.org/1999/xlink" x="0px" y="0px"
	 width="100%" viewBox="0 0 512 512" enable-background="new 0 0 512 512" xml:space="preserve">
<path fill="#083964" opacity="1.000000" stroke="none" 
	d="
M385.000000,513.000000 
	C369.979095,513.000000 354.958221,513.000000 339.417725,512.615845 
	C337.883453,511.821228 336.903381,511.221527 335.848877,511.028595 
	C320.714691,508.258728 306.480011,502.989014 293.021057,495.603333 
	C277.702148,487.197021 264.952179,475.715851 253.569214,462.576935 
	C252.786636,461.673615 250.924500,461.174957 249.650894,461.309052 
	C235.830688,462.764282 222.039200,465.564178 208.217651,465.697845 
	C183.979843,465.932312 159.594269,465.873169 135.521057,463.449463 
	C115.885376,461.472504 96.341621,456.856171 77.258888,451.591339 
	C57.543617,446.152069 38.818886,437.870361 24.571939,422.095428 
	C17.864517,414.668640 13.960349,406.288666 13.966084,396.062866 
	C14.027007,287.434235 13.955216,178.805466 14.155968,70.177170 
	C14.165409,65.068581 15.621812,59.616131 17.735676,54.923542 
	C23.850580,41.349007 35.697895,33.450184 48.331181,26.978386 
	C77.101952,12.239651 108.180862,5.952818 140.080872,2.922901 
	C141.435913,2.794198 142.695786,1.663770 144.000000,1.000000 
	C171.020889,1.000000 198.041794,1.000000 225.602142,1.395991 
	C226.833405,2.167456 227.489777,2.770578 228.222290,2.884615 
	C241.437576,4.942000 254.786469,6.345046 267.858398,9.076670 
	C294.150665,14.570933 319.646057,22.219236 340.404480,40.646725 
	C349.079285,48.347469 354.918152,57.521782 354.944763,69.382423 
	C355.062469,121.857208 354.995636,174.332413 354.998749,226.807465 
	C354.998871,228.473053 354.661865,230.263718 355.167511,231.765244 
	C355.583740,233.001205 356.886841,234.597504 358.025543,234.810196 
	C361.752777,235.506500 365.580963,235.901306 369.376465,235.952164 
	C386.425415,236.180573 402.485809,240.666000 417.886993,247.509796 
	C445.388031,259.730347 466.581848,278.988129 481.758667,305.082062 
	C492.301788,323.209076 498.374207,342.675232 499.842865,363.405853 
	C501.285797,383.773560 498.845642,403.743042 491.549896,423.089874 
	C482.301483,447.614624 467.487152,467.881012 446.936890,484.011780 
	C429.432404,497.751770 409.641022,506.542267 387.882172,511.042755 
	C386.831451,511.260101 385.956696,512.328125 385.000000,513.000000 
M223.008057,390.309052 
	C223.116913,390.596497 223.225754,390.883942 223.334595,391.171387 
	C223.443802,391.110352 223.553024,391.049316 223.662247,390.988281 
	C223.424210,390.665710 223.186157,390.343109 223.266373,389.126556 
	C223.266373,378.055878 223.266373,366.985168 223.266373,355.728729 
	C160.382462,359.098572 98.429733,356.862091 40.139271,326.670227 
	C40.139271,329.196014 40.139278,330.982239 40.139271,332.768463 
	C40.139172,351.593109 40.559875,370.431152 39.960079,389.236664 
	C39.663574,398.532990 43.398312,404.788086 50.414825,409.958008 
	C62.286991,418.705627 75.852798,423.811310 89.821503,427.716583 
	C137.207840,440.964600 185.416245,442.025696 233.988739,436.678802 
	C234.885452,436.580109 235.733124,436.035950 236.070908,435.905457 
	C232.037216,423.609528 228.104843,411.622467 224.172577,399.635681 
	C221.715317,405.857758 217.405716,409.804321 210.354721,409.827576 
	C193.529388,409.883057 176.696014,410.114349 159.884415,409.630310 
	C156.302872,409.527222 152.194046,407.376190 149.410233,404.934784 
	C145.693802,401.675446 144.886978,396.804565 147.025040,392.051239 
	C149.322739,386.943024 153.264465,383.840759 159.055481,383.810638 
	C174.381180,383.730896 189.711426,383.955353 205.031631,383.648071 
	C211.989212,383.508484 218.210236,384.477997 223.008057,390.309052 
M249.632431,387.786163 
	C250.707047,393.165100 251.532532,398.608002 252.894485,403.913177 
	C268.069763,463.024475 332.316406,499.739990 391.013550,482.916595 
	C453.592163,464.980682 487.630859,401.556213 468.062988,339.349884 
	C448.806488,278.133240 378.134216,245.321472 319.027832,270.155792 
	C271.816498,289.992249 244.518219,335.791901 249.632431,387.786163 
M149.809128,139.797485 
	C141.537994,138.858078 133.233673,138.145020 125.001770,136.937988 
	C97.196182,132.860840 70.023773,126.618896 45.191685,112.699898 
	C43.843147,111.944023 42.349979,111.446175 40.140633,110.488632 
	C40.140633,113.237381 40.140640,115.030632 40.140629,116.823883 
	C40.140530,135.151184 40.645420,153.497910 39.941380,171.798126 
	C39.550583,181.956161 43.774624,188.560120 51.558575,193.935364 
	C63.221199,201.989059 76.214302,207.041763 89.685699,210.992050 
	C113.469246,217.966187 137.850342,221.186050 162.548035,222.373444 
	C202.213120,224.280411 241.466507,221.868347 279.836456,210.837555 
	C293.644806,206.867859 306.927277,201.573349 318.689545,193.024521 
	C325.600952,188.001297 329.275665,181.828796 329.018463,172.755768 
	C328.489838,154.110229 328.867920,135.439209 328.846375,116.778717 
	C328.844177,114.893929 328.661285,113.009346 328.533325,110.574127 
	C326.564453,111.432312 325.317261,111.842079 324.202026,112.481934 
	C304.737213,123.649933 283.514587,129.766022 261.689697,134.011246 
	C224.994232,141.148987 187.964935,142.448654 149.809128,139.797485 
M73.981926,44.469028 
	C71.983772,45.296619 69.947998,46.044376 67.993912,46.965458 
	C58.933140,51.236347 49.916405,55.635303 43.429203,63.644909 
	C39.092041,68.999901 38.841690,73.396118 43.514069,78.401772 
	C47.320484,82.479698 51.740997,86.280861 56.543957,89.082146 
	C80.610260,103.118645 107.326393,108.603394 134.533157,111.989021 
	C170.748413,116.495659 206.986389,116.141014 243.105515,110.874474 
	C264.915192,107.694405 286.321899,102.712799 306.128174,92.662880 
	C312.147675,89.608513 317.925079,85.704170 323.011414,81.269363 
	C331.012512,74.293152 330.782288,67.864433 322.901733,60.630402 
	C319.737732,57.725971 316.201355,55.104893 312.495361,52.933571 
	C292.491180,41.213211 270.385406,35.759811 247.810028,32.008423 
	C216.276840,26.768496 184.508423,25.917490 152.683777,28.269302 
	C126.042732,30.238052 99.811783,34.566124 73.981926,44.469028 
M42.767666,293.527496 
	C47.138042,297.318726 51.065243,301.851501 55.954975,304.773712 
	C77.953003,317.920197 102.539841,323.207672 127.485146,326.957825 
	C160.097824,331.860657 192.841644,332.004395 225.646820,328.974396 
	C229.097382,328.655670 230.887924,327.458527 232.142303,324.144501 
	C239.142151,305.651093 249.838364,289.498901 263.944885,275.657623 
	C281.048004,258.876007 301.151703,247.240021 324.270233,240.813278 
	C325.866089,240.369629 328.454346,239.184708 328.512573,238.219696 
	C328.895447,231.874756 328.710022,225.495529 328.710022,218.398773 
	C282.885284,243.269455 234.004654,248.917358 184.179123,248.895035 
	C134.431381,248.872742 85.648125,243.044540 40.568184,218.595444 
	C40.359123,220.260315 40.169922,221.067413 40.169224,221.874664 
	C40.150902,243.029678 40.079239,264.185303 40.245785,285.338989 
	C40.265724,287.871307 41.598827,290.393250 42.767666,293.527496 
z"/>
<path fill="#000000" opacity="1.000000" stroke="none" 
	d="
M385.468658,513.000000 
	C385.956696,512.328125 386.831451,511.260101 387.882172,511.042755 
	C409.641022,506.542267 429.432404,497.751770 446.936890,484.011780 
	C467.487152,467.881012 482.301483,447.614624 491.549896,423.089874 
	C498.845642,403.743042 501.285797,383.773560 499.842865,363.405853 
	C498.374207,342.675232 492.301788,323.209076 481.758667,305.082062 
	C466.581848,278.988129 445.388031,259.730347 417.886993,247.509796 
	C402.485809,240.666000 386.425415,236.180573 369.376465,235.952164 
	C365.580963,235.901306 361.752777,235.506500 358.025543,234.810196 
	C356.886841,234.597504 355.583740,233.001205 355.167511,231.765244 
	C354.661865,230.263718 354.998871,228.473053 354.998749,226.807465 
	C354.995636,174.332413 355.062469,121.857208 354.944763,69.382423 
	C354.918152,57.521782 349.079285,48.347469 340.404480,40.646725 
	C319.646057,22.219236 294.150665,14.570933 267.858398,9.076670 
	C254.786469,6.345046 241.437576,4.942000 228.222290,2.884615 
	C227.489777,2.770578 226.833405,2.167456 226.070801,1.395991 
	C321.621490,1.000000 417.243011,1.000000 512.932251,1.000000 
	C512.932251,171.666656 512.932251,342.333344 512.932251,513.000000 
	C470.564056,513.000000 428.250702,513.000000 385.468658,513.000000 
z"/>
<path fill="#000000" opacity="1.000000" stroke="none" 
	d="
M143.531342,1.000000 
	C142.695786,1.663770 141.435913,2.794198 140.080872,2.922901 
	C108.180862,5.952818 77.101952,12.239651 48.331181,26.978386 
	C35.697895,33.450184 23.850580,41.349007 17.735676,54.923542 
	C15.621812,59.616131 14.165409,65.068581 14.155968,70.177170 
	C13.955216,178.805466 14.027007,287.434235 13.966084,396.062866 
	C13.960349,406.288666 17.864517,414.668640 24.571939,422.095428 
	C38.818886,437.870361 57.543617,446.152069 77.258888,451.591339 
	C96.341621,456.856171 115.885376,461.472504 135.521057,463.449463 
	C159.594269,465.873169 183.979843,465.932312 208.217651,465.697845 
	C222.039200,465.564178 235.830688,462.764282 249.650894,461.309052 
	C250.924500,461.174957 252.786636,461.673615 253.569214,462.576935 
	C264.952179,475.715851 277.702148,487.197021 293.021057,495.603333 
	C306.480011,502.989014 320.714691,508.258728 335.848877,511.028595 
	C336.903381,511.221527 337.883453,511.821228 338.949097,512.615845 
	C226.382965,513.000000 113.765938,513.000000 1.074451,513.000000 
	C1.074451,342.333344 1.074451,171.666672 1.074451,1.000000 
	C48.437775,1.000000 95.750229,1.000000 143.531342,1.000000 
z"/>
<path fill="#00EED1" opacity="1.000000" stroke="none" 
	d="
M249.538757,387.342163 
	C244.518219,335.791901 271.816498,289.992249 319.027832,270.155792 
	C378.134216,245.321472 448.806488,278.133240 468.062988,339.349884 
	C487.630859,401.556213 453.592163,464.980682 391.013550,482.916595 
	C332.316406,499.739990 268.069763,463.024475 252.894485,403.913177 
	C251.532532,398.608002 250.707047,393.165100 249.538757,387.342163 
M348.253632,372.502930 
	C348.253601,379.663422 348.249695,386.823914 348.254517,393.984406 
	C348.261139,403.809143 348.116425,413.637421 348.338654,423.457367 
	C348.495178,430.373901 352.960297,435.727722 358.919800,436.897400 
	C364.683868,438.028748 370.778320,435.006653 373.149445,429.235443 
	C374.181824,426.722748 374.382904,423.734375 374.397125,420.959106 
	C374.497833,401.309937 374.443726,381.659973 374.466278,362.010315 
	C374.468445,360.118286 374.656769,358.226471 374.821564,355.167847 
	C381.685944,361.510925 387.514008,367.134674 393.605896,372.456421 
	C399.335693,377.461853 407.215546,377.029877 412.025391,371.800568 
	C416.628479,366.796051 416.674530,358.715027 411.461121,353.743347 
	C397.965698,340.873810 384.333069,328.141357 370.504944,315.630829 
	C364.608002,310.295776 357.857941,310.347473 352.004456,315.660645 
	C338.319611,328.082336 324.803864,340.695068 311.415009,353.435822 
	C306.006836,358.582245 305.967804,366.758331 310.737457,371.864258 
	C315.536896,377.002045 323.521912,377.350311 329.199554,372.392853 
	C334.339905,367.904572 339.227234,363.127258 344.261688,358.516205 
	C345.259949,357.601898 346.419800,356.864105 348.253632,355.479889 
	C348.253632,361.549347 348.253632,366.527374 348.253632,372.502930 
z"/>
<path fill="#00ABE9" opacity="1.000000" stroke="none" 
	d="
M150.276215,139.835663 
	C187.964935,142.448654 224.994232,141.148987 261.689697,134.011246 
	C283.514587,129.766022 304.737213,123.649933 324.202026,112.481934 
	C325.317261,111.842079 326.564453,111.432312 328.533325,110.574127 
	C328.661285,113.009346 328.844177,114.893929 328.846375,116.778717 
	C328.867920,135.439209 328.489838,154.110229 329.018463,172.755768 
	C329.275665,181.828796 325.600952,188.001297 318.689545,193.024521 
	C306.927277,201.573349 293.644806,206.867859 279.836456,210.837555 
	C241.466507,221.868347 202.213120,224.280411 162.548035,222.373444 
	C137.850342,221.186050 113.469246,217.966187 89.685699,210.992050 
	C76.214302,207.041763 63.221199,201.989059 51.558575,193.935364 
	C43.774624,188.560120 39.550583,181.956161 39.941380,171.798126 
	C40.645420,153.497910 40.140530,135.151184 40.140629,116.823883 
	C40.140640,115.030632 40.140633,113.237381 40.140633,110.488632 
	C42.349979,111.446175 43.843147,111.944023 45.191685,112.699898 
	C70.023773,126.618896 97.196182,132.860840 125.001770,136.937988 
	C133.233673,138.145020 141.537994,138.858078 150.276215,139.835663 
M187.500000,166.971802 
	C178.347305,166.974411 169.193893,166.907135 160.042130,167.000549 
	C151.934738,167.083298 145.952179,172.778503 146.034470,180.127853 
	C146.114578,187.284714 152.022552,192.930786 159.822250,192.971573 
	C176.629471,193.059433 193.437729,193.052765 210.245056,192.976868 
	C218.429626,192.939911 224.202774,187.367203 224.144012,179.848709 
	C224.087158,172.574692 218.354721,167.112564 210.466156,167.005035 
	C203.145309,166.905243 195.822144,166.976105 187.500000,166.971802 
z"/>
<path fill="#00EED1" opacity="1.000000" stroke="none" 
	d="
M74.335907,44.313988 
	C99.811783,34.566124 126.042732,30.238052 152.683777,28.269302 
	C184.508423,25.917490 216.276840,26.768496 247.810028,32.008423 
	C270.385406,35.759811 292.491180,41.213211 312.495361,52.933571 
	C316.201355,55.104893 319.737732,57.725971 322.901733,60.630402 
	C330.782288,67.864433 331.012512,74.293152 323.011414,81.269363 
	C317.925079,85.704170 312.147675,89.608513 306.128174,92.662880 
	C286.321899,102.712799 264.915192,107.694405 243.105515,110.874474 
	C206.986389,116.141014 170.748413,116.495659 134.533157,111.989021 
	C107.326393,108.603394 80.610260,103.118645 56.543957,89.082146 
	C51.740997,86.280861 47.320484,82.479698 43.514069,78.401772 
	C38.841690,73.396118 39.092041,68.999901 43.429203,63.644909 
	C49.916405,55.635303 58.933140,51.236347 67.993912,46.965458 
	C69.947998,46.044376 71.983772,45.296619 74.335907,44.313988 
z"/>
<path fill="#00ABE9" opacity="1.000000" stroke="none" 
	d="
M42.545464,293.223755 
	C41.598827,290.393250 40.265724,287.871307 40.245785,285.338989 
	C40.079239,264.185303 40.150902,243.029678 40.169224,221.874664 
	C40.169922,221.067413 40.359123,220.260315 40.568184,218.595444 
	C85.648125,243.044540 134.431381,248.872742 184.179123,248.895035 
	C234.004654,248.917358 282.885284,243.269455 328.710022,218.398773 
	C328.710022,225.495529 328.895447,231.874756 328.512573,238.219696 
	C328.454346,239.184708 325.866089,240.369629 324.270233,240.813278 
	C301.151703,247.240021 281.048004,258.876007 263.944885,275.657623 
	C249.838364,289.498901 239.142151,305.651093 232.142303,324.144501 
	C230.887924,327.458527 229.097382,328.655670 225.646820,328.974396 
	C192.841644,332.004395 160.097824,331.860657 127.485146,326.957825 
	C102.539841,323.207672 77.953003,317.920197 55.954975,304.773712 
	C51.065243,301.851501 47.138042,297.318726 42.545464,293.223755 
M149.135269,295.263519 
	C152.649170,296.854370 156.126816,299.718231 159.683136,299.819519 
	C176.665359,300.303253 193.669388,300.108612 210.664749,300.006195 
	C218.523132,299.958832 224.185669,294.311676 224.147964,286.961029 
	C224.110626,279.683899 218.377121,274.090027 210.491272,274.040497 
	C193.662521,273.934845 176.831787,273.900757 160.003571,274.041718 
	C148.369431,274.139130 142.674026,284.706390 149.135269,295.263519 
z"/>
<path fill="#00ABE9" opacity="1.000000" stroke="none" 
	d="
M223.041412,389.945648 
	C218.210236,384.477997 211.989212,383.508484 205.031631,383.648071 
	C189.711426,383.955353 174.381180,383.730896 159.055481,383.810638 
	C153.264465,383.840759 149.322739,386.943024 147.025040,392.051239 
	C144.886978,396.804565 145.693802,401.675446 149.410233,404.934784 
	C152.194046,407.376190 156.302872,409.527222 159.884415,409.630310 
	C176.696014,410.114349 193.529388,409.883057 210.354721,409.827576 
	C217.405716,409.804321 221.715317,405.857758 224.172577,399.635681 
	C228.104843,411.622467 232.037216,423.609528 236.070908,435.905457 
	C235.733124,436.035950 234.885452,436.580109 233.988739,436.678802 
	C185.416245,442.025696 137.207840,440.964600 89.821503,427.716583 
	C75.852798,423.811310 62.286991,418.705627 50.414825,409.958008 
	C43.398312,404.788086 39.663574,398.532990 39.960079,389.236664 
	C40.559875,370.431152 40.139172,351.593109 40.139271,332.768463 
	C40.139278,330.982239 40.139271,329.196014 40.139271,326.670227 
	C98.429733,356.862091 160.382462,359.098572 223.266373,355.728729 
	C223.266373,366.985168 223.266373,378.055878 223.130981,389.555359 
	C222.995590,389.984131 223.041412,389.945648 223.041412,389.945648 
z"/>
<path fill="#00ABE9" opacity="1.000000" stroke="none" 
	d="
M222.971863,390.002319 
	C223.186157,390.343109 223.424210,390.665710 223.662247,390.988281 
	C223.553024,391.049316 223.443802,391.110352 223.334595,391.171387 
	C223.225754,390.883942 223.116913,390.596497 223.024734,390.127350 
	C223.041412,389.945648 222.995590,389.984131 222.971863,390.002319 
z"/>
<path fill="#083A64" opacity="1.000000" stroke="none" 
	d="
M348.253632,372.004181 
	C348.253632,366.527374 348.253632,361.549347 348.253632,355.479889 
	C346.419800,356.864105 345.259949,357.601898 344.261688,358.516205 
	C339.227234,363.127258 334.339905,367.904572 329.199554,372.392853 
	C323.521912,377.350311 315.536896,377.002045 310.737457,371.864258 
	C305.967804,366.758331 306.006836,358.582245 311.415009,353.435822 
	C324.803864,340.695068 338.319611,328.082336 352.004456,315.660645 
	C357.857941,310.347473 364.608002,310.295776 370.504944,315.630829 
	C384.333069,328.141357 397.965698,340.873810 411.461121,353.743347 
	C416.674530,358.715027 416.628479,366.796051 412.025391,371.800568 
	C407.215546,377.029877 399.335693,377.461853 393.605896,372.456421 
	C387.514008,367.134674 381.685944,361.510925 374.821564,355.167847 
	C374.656769,358.226471 374.468445,360.118286 374.466278,362.010315 
	C374.443726,381.659973 374.497833,401.309937 374.397125,420.959106 
	C374.382904,423.734375 374.181824,426.722748 373.149445,429.235443 
	C370.778320,435.006653 364.683868,438.028748 358.919800,436.897400 
	C352.960297,435.727722 348.495178,430.373901 348.338654,423.457367 
	C348.116425,413.637421 348.261139,403.809143 348.254517,393.984406 
	C348.249695,386.823914 348.253601,379.663422 348.253632,372.004181 
z"/>
<path fill="#083964" opacity="1.000000" stroke="none" 
	d="
M188.000000,166.971802 
	C195.822144,166.976105 203.145309,166.905243 210.466156,167.005035 
	C218.354721,167.112564 224.087158,172.574692 224.144012,179.848709 
	C224.202774,187.367203 218.429626,192.939911 210.245056,192.976868 
	C193.437729,193.052765 176.629471,193.059433 159.822250,192.971573 
	C152.022552,192.930786 146.114578,187.284714 146.034470,180.127853 
	C145.952179,172.778503 151.934738,167.083298 160.042130,167.000549 
	C169.193893,166.907135 178.347305,166.974411 188.000000,166.971802 
z"/>
<path fill="#083964" opacity="1.000000" stroke="none" 
	d="
M148.928024,294.947510 
	C142.674026,284.706390 148.369431,274.139130 160.003571,274.041718 
	C176.831787,273.900757 193.662521,273.934845 210.491272,274.040497 
	C218.377121,274.090027 224.110626,279.683899 224.147964,286.961029 
	C224.185669,294.311676 218.523132,299.958832 210.664749,300.006195 
	C193.669388,300.108612 176.665359,300.303253 159.683136,299.819519 
	C156.126816,299.718231 152.649170,296.854370 148.928024,294.947510 
z"/>
</svg>